/* XPM */
static char* log_xpm[] = {
/* width height ncolors chars_per_pixel */
"16 16 30 1",
/* colors */
"  c None",
"0 c #8CA2C4",
"? c #B4CAD4",
"& c #B4D2E4",
"$ c #BCCEDC",
"@ c #BCC6D4",
"% c #B4C6D4",
"# c #BCCAD4",
"* c #7C9AC4",
"} c #7C8EBC",
"{ c #4C4E4C",
"> c #FCFEE4",
"< c #E4EAE4",
") c #DCEAE4",
"( c #DCE6E4",
"] c #DCE2DC",
"[ c #E4EADC",
"! c #7C92BC",
"/ c #848284",
"; c #2C6AAC",
": c #2C5A9C",
"+ c #0C5EB4",
"= c #0452AC",
"^ c #045AB4",
"~ c #4486CC",
"_ c #1C8AEC",
"- c #0C7EE4",
"` c #1486E4",
", c #248AE4",
". c #2C86DC",
/* pixels */
"                ",
".,```````--__~~ ",
"^==========+^:;/",
"![]]](()<(]]](!/",
"!>>>>>>>>>>>>>!/",
"!>{{{{>>>>>>>>!/",
"!>>>>>>>>>>>>>!/",
"!>{{{{>>>>>>>>}/",
"!>>>>>>>>>>>>>}/",
"!>{{{{>>>>>>>>!/",
"!>>>>>>>>>>>>>}/",
"!>{{{{{{{{{{{>!/",
"!>>>>>>>>>>>>>!/",
"*#%%@#$&?##?%$}/",
"0}!!!!!!!!!!!!!/",
" ///////////////"
};
